<svg xmlns="http://www.w3.org/2000/svg" width="36" height="36" viewBox="0 0 36 36"><path fill="#61DAFB" d="M18 0C8.058 0 0 8.058 0 18s8.058 18 18 18 18-8.058 18-18S27.942 0 18 0zm12.184 18.722c-1.296-1.992-3.703-3.319-6.488-3.767l1.231-5.923c.286-1.386.138-2.836-.421-4.112-.542-1.256-1.553-2.26-2.83-2.857l-.277 6.144c1.282.503 2.316 1.501 2.924 2.834l6.376.574zm-18.368 0c1.296-1.992 3.703-3.319 6.488-3.767l-1.231-5.923c-.286-1.386-.138-2.836.421-4.112.542-1.256 1.553-2.26 2.83-2.857l.277 6.144c-1.282.503-2.316 1.501-2.924 2.834l-6.376.574zm-2.816 7.56c1.565-1.353 3.605-2.179 5.838-2.398l1.584 7.57c.413 1.982 2.128 3.416 4.14 3.416s3.727-1.434 4.14-3.416l1.584-7.57c2.233.219 4.273 1.045 5.838 2.398-3.084 4.084-7.82 6.677-13.36 6.677s-10.276-2.593-13.36-6.677zm13.36 0c1.565-1.353 3.605-2.179 5.838-2.398l1.584 7.57c.413 1.982 2.128 3.416 4.14 3.416s3.727-1.434 4.14-3.416l1.584-7.57c2.233.219 4.273 1.045 5.838 2.398-3.084 4.084-7.82 6.677-13.36 6.677s-10.276-2.593-13.36-6.677z"/></svg>